<svg xmlns="http://www.w3.org/2000/svg" xmlns:xlink="http://www.w3.org/1999/xlink" width="303" zoomAndPan="magnify" viewBox="0 0 227.25 167.249994" height="223" preserveAspectRatio="xMidYMid meet" version="1.0"><defs><clipPath id="9bdf47ce4a"><path d="M 42.390625 39.203125 L 201.601562 39.203125 L 201.601562 165.96875 L 42.390625 165.96875 Z M 42.390625 39.203125 " clip-rule="nonzero"/></clipPath><clipPath id="7bd41cc385"><path d="M 0.230469 3.207031 L 225.519531 3.207031 L 225.519531 99.078125 L 0.230469 99.078125 Z M 0.230469 3.207031 " clip-rule="nonzero"/></clipPath><clipPath id="ae45903304"><path d="M 41 15 L 107 15 L 107 73 L 41 73 Z M 41 15 " clip-rule="nonzero"/></clipPath><clipPath id="ca17206f6a"><path d="M 39.007812 72.179688 L 71.191406 -0.125 L 106.664062 15.664062 L 74.476562 87.96875 Z M 39.007812 72.179688 " clip-rule="nonzero"/></clipPath><clipPath id="379224df3f"><path d="M 74.734375 88.082031 L 106.917969 15.777344 L 71.449219 -0.0117188 L 39.261719 72.292969 Z M 74.734375 88.082031 " clip-rule="nonzero"/></clipPath></defs><g clip-path="url(#9bdf47ce4a)"><path fill="#100f0d" d="M 183.980469 89.738281 C 186.007812 86.273438 187.652344 82.941406 188.988281 79.816406 C 189.664062 79.964844 190.320312 80.105469 190.945312 80.238281 C 191.148438 80.285156 191.34375 80.328125 191.539062 80.371094 C 189.03125 84.914062 183.980469 89.738281 183.980469 89.738281 Z M 178.882812 85.457031 C 180.261719 83.117188 181.214844 80.59375 181.863281 78.371094 C 182.371094 78.46875 182.878906 78.566406 183.371094 78.664062 C 183.917969 78.765625 184.457031 78.875 184.984375 78.984375 C 181.726562 83.253906 178.96875 85.390625 178.882812 85.457031 Z M 179.167969 77.871094 C 179.769531 77.976562 180.359375 78.085938 180.941406 78.195312 C 179.160156 81.378906 177.019531 83.515625 176.953125 83.582031 C 177.796875 81.972656 178.53125 80.015625 179.167969 77.871094 Z M 169.375 80.351562 C 169.875 79.003906 170.269531 77.703125 170.578125 76.464844 C 170.628906 76.472656 170.679688 76.480469 170.730469 76.488281 C 172.09375 76.683594 173.417969 76.890625 174.707031 77.101562 C 171.777344 80.628906 169.375 80.351562 169.375 80.351562 Z M 165.789062 79.523438 C 166.226562 78.320312 166.621094 77.132812 166.992188 75.96875 C 167.457031 76.027344 167.914062 76.089844 168.371094 76.152344 C 167.058594 78.453125 165.789062 79.523438 165.789062 79.523438 Z M 158.347656 77.453125 C 158.765625 76.730469 159.125 75.941406 159.4375 75.113281 L 159.644531 75.132812 C 160.292969 75.199219 160.9375 75.265625 161.574219 75.328125 C 161.894531 75.359375 162.210938 75.394531 162.527344 75.429688 C 162.84375 75.46875 163.160156 75.503906 163.472656 75.539062 C 163.65625 75.558594 163.835938 75.582031 164.019531 75.601562 C 161.0625 78.722656 158.347656 77.453125 158.347656 77.453125 Z M 155.875 76.753906 C 156.132812 76.152344 156.378906 75.519531 156.609375 74.867188 C 156.683594 74.875 156.761719 74.878906 156.835938 74.886719 C 156.296875 75.992188 155.917969 76.671875 155.875 76.753906 Z M 105.816406 81.015625 L 105.550781 80.695312 C 105.699219 80.636719 105.851562 80.582031 106 80.523438 C 105.886719 80.847656 105.816406 81.015625 105.816406 81.015625 Z M 90.890625 88.546875 C 91.078125 88.417969 91.261719 88.285156 91.449219 88.15625 L 91.914062 87.832031 L 92.390625 87.519531 L 92.988281 87.128906 L 93.828125 89.710938 C 92.859375 89.390625 91.878906 88.996094 90.890625 88.546875 Z M 80.007812 98.226562 C 80.398438 97.789062 80.796875 97.359375 81.199219 96.929688 C 81.605469 96.5 82.019531 96.082031 82.441406 95.660156 C 84.097656 97.660156 85.144531 98.824219 85.144531 98.824219 C 83.347656 98.757812 81.636719 98.550781 80.007812 98.226562 Z M 72.84375 107.769531 C 73.214844 107.175781 73.597656 106.582031 73.988281 105.996094 C 75.015625 106.96875 75.636719 107.523438 75.636719 107.523438 C 74.753906 107.734375 73.816406 107.804688 72.84375 107.769531 Z M 67.835938 117.152344 C 68.136719 116.484375 68.449219 115.816406 68.773438 115.148438 C 70.664062 116.269531 71.914062 116.839844 71.914062 116.839844 C 70.667969 117.167969 69.289062 117.25 67.835938 117.152344 Z M 187.703125 100.367188 C 194.179688 91.671875 199.277344 98.710938 199.277344 98.710938 C 197.898438 93.1875 186.738281 95.535156 186.738281 95.535156 C 191.699219 88.632812 197.210938 91.808594 197.210938 91.808594 C 194.589844 88.496094 186.046875 91.394531 186.046875 91.394531 C 188.863281 87.738281 190.886719 82.667969 191.707031 80.410156 C 192.175781 80.515625 192.628906 80.617188 193.066406 80.714844 C 193.734375 80.863281 194.371094 81.003906 194.96875 81.148438 C 195.5625 81.289062 196.125 81.417969 196.640625 81.539062 C 197.683594 81.773438 198.566406 81.992188 199.28125 82.167969 C 200.585938 82.480469 201.335938 82.664062 201.464844 82.691406 C 201.339844 82.648438 200.609375 82.402344 199.335938 81.976562 C 198.640625 81.746094 197.773438 81.457031 196.753906 81.136719 C 195.734375 80.8125 194.5625 80.433594 193.242188 80.042969 C 192.832031 79.921875 192.40625 79.792969 191.972656 79.664062 C 192.050781 79.429688 192.097656 79.285156 192.109375 79.253906 C 192.046875 79.382812 191.984375 79.515625 191.917969 79.648438 C 191.667969 79.574219 191.417969 79.496094 191.15625 79.417969 C 190.582031 79.253906 189.984375 79.085938 189.367188 78.910156 C 194.730469 65.945312 194.730469 56.742188 194.730469 56.742188 C 192.992188 66.121094 189.207031 73.160156 185.773438 77.917969 C 185.089844 77.734375 184.390625 77.542969 183.664062 77.363281 C 183.195312 77.242188 182.71875 77.121094 182.234375 77 C 182.960938 74.140625 183.15625 72.066406 183.15625 72.066406 C 182.894531 73.773438 182.324219 75.390625 181.636719 76.847656 C 180.972656 76.683594 180.289062 76.519531 179.59375 76.355469 C 182.457031 65.664062 183.15625 51.496094 183.15625 51.496094 C 181.3125 64.421875 178.496094 71.5625 175.886719 75.507812 C 174.335938 75.167969 172.726562 74.835938 171.066406 74.515625 C 171.046875 74.511719 171.027344 74.507812 171.007812 74.503906 C 172.1875 68.292969 171.238281 64.058594 171.238281 64.058594 C 171.273438 68.390625 170.402344 71.738281 169.347656 74.191406 C 168.777344 74.085938 168.203125 73.984375 167.625 73.882812 C 172.042969 58.660156 171.164062 47.21875 171.164062 47.21875 C 170.367188 61.835938 168.035156 69.53125 165.578125 73.535156 C 163.828125 73.246094 162.027344 72.972656 160.183594 72.726562 C 161.714844 66.804688 161.378906 60.058594 161.378906 60.058594 C 161.070312 64.457031 159.386719 69.15625 157.960938 72.445312 C 157.769531 72.421875 157.582031 72.398438 157.390625 72.378906 C 161.078125 59.117188 159.863281 39.351562 159.863281 39.351562 C 159.34375 59.742188 154.988281 68.25 151.101562 71.765625 C 150.636719 71.730469 150.167969 71.699219 149.699219 71.664062 C 148.992188 71.617188 148.285156 71.566406 147.570312 71.535156 C 146.871094 71.492188 146.167969 71.460938 145.464844 71.429688 C 146.628906 64.71875 145.316406 57.878906 145.257812 57.582031 C 145.824219 64.339844 144.660156 68.828125 143.609375 71.371094 C 143.457031 71.371094 143.304688 71.367188 143.152344 71.363281 C 144.734375 63.746094 142.203125 46.636719 142.203125 46.636719 C 141.777344 61.535156 138.304688 68.339844 135.023438 71.4375 C 133.875 71.484375 132.722656 71.546875 131.5625 71.628906 C 133.175781 63.703125 131.171875 59.109375 131.078125 58.90625 C 132.371094 62.945312 130.855469 68.664062 129.8125 71.765625 C 129.78125 71.769531 129.753906 71.769531 129.722656 71.773438 C 129.691406 71.777344 129.664062 71.777344 129.632812 71.78125 C 130.660156 63.6875 125.664062 40.839844 125.664062 40.839844 C 127.824219 59.652344 124.460938 68.640625 120.753906 72.941406 C 120.65625 72.957031 120.558594 72.972656 120.464844 72.988281 C 118.914062 73.261719 117.367188 73.585938 115.820312 73.9375 C 115.808594 73.941406 115.800781 73.941406 115.789062 73.941406 C 115.707031 67.023438 113.738281 63.160156 113.675781 63.042969 C 114.972656 67.019531 114.605469 71.570312 114.175781 74.335938 C 113.988281 74.378906 113.800781 74.429688 113.609375 74.476562 C 112.804688 64.871094 105.925781 48.960938 105.820312 48.710938 C 109.308594 61.085938 108.265625 71.015625 107.105469 76.453125 L 106.625 76.621094 C 105.867188 76.878906 105.121094 77.179688 104.367188 77.460938 C 103.992188 77.601562 103.621094 77.757812 103.25 77.910156 C 103.242188 77.914062 103.234375 77.914062 103.230469 77.917969 L 90.933594 63.203125 L 97.855469 80.378906 C 97.824219 80.394531 97.796875 80.40625 97.765625 80.421875 C 97.699219 80.457031 97.628906 80.496094 97.558594 80.53125 L 81.835938 52.851562 L 91.898438 83.777344 C 91.765625 83.859375 91.636719 83.945312 91.503906 84.027344 L 90.503906 84.695312 L 90.007812 85.03125 L 89.515625 85.375 C 88.84375 85.84375 88.183594 86.328125 87.53125 86.824219 C 75.628906 80.070312 63.851562 66.933594 63.851562 66.933594 C 67.933594 76.691406 75.453125 86.957031 80.375 93.125 C 80.128906 93.371094 79.886719 93.625 79.648438 93.878906 C 79.382812 94.164062 79.109375 94.441406 78.847656 94.730469 C 78.066406 95.585938 77.308594 96.457031 76.578125 97.339844 C 60.832031 92.316406 54.136719 76.457031 54.136719 76.457031 C 52.601562 83.84375 65.210938 97.398438 71.796875 103.882812 C 71.0625 105.019531 70.371094 106.164062 69.714844 107.316406 C 61.789062 105.453125 53.035156 98.519531 52.898438 98.414062 C 55.835938 105.527344 61.964844 110.675781 66.472656 113.695312 C 66.007812 114.730469 65.570312 115.757812 65.15625 116.785156 C 54.941406 114.765625 42.558594 105.867188 42.558594 105.867188 C 46.59375 113.683594 56.230469 120.621094 62.472656 124.515625 C 61.714844 127.066406 61.097656 129.5625 60.59375 131.96875 C 59.613281 136.640625 59.058594 140.976562 58.742188 144.824219 C 58.429688 148.671875 58.359375 152.039062 58.394531 154.800781 C 58.410156 156.183594 58.457031 157.417969 58.515625 158.492188 C 58.570312 159.5625 58.636719 160.472656 58.699219 161.210938 C 58.757812 161.945312 58.824219 162.507812 58.867188 162.890625 C 58.910156 163.21875 58.933594 163.410156 58.9375 163.453125 C 58.933594 163.359375 58.902344 162.582031 58.894531 161.199219 C 58.886719 159.726562 58.929688 157.5625 59.085938 154.816406 C 59.246094 152.074219 59.527344 148.75 60.058594 144.96875 C 60.589844 141.191406 61.359375 136.953125 62.527344 132.421875 C 63.085938 130.253906 63.734375 128.019531 64.492188 125.742188 C 66.734375 127.070312 68.191406 127.816406 68.191406 127.816406 C 70.007812 131.722656 67.207031 152.074219 67.207031 152.074219 C 67.207031 152.074219 62.246094 168.847656 71.960938 165.535156 C 81.675781 162.21875 75.269531 157.871094 72.996094 151.039062 C 70.722656 144.207031 75.886719 129.503906 75.886719 129.503906 C 79.507812 121.390625 83.605469 114.828125 88.015625 109.574219 C 86.714844 113.714844 86.398438 118.238281 87.296875 122.808594 C 88.046875 126.644531 89.574219 130.125 91.679688 133.121094 C 98.898438 139.191406 107.726562 141.753906 116.351562 140.058594 C 127.46875 137.875 136.410156 128.628906 139.707031 116.167969 C 139.632812 114.984375 139.480469 113.789062 139.25 112.589844 C 137.085938 101.5625 128.503906 93.449219 118.199219 91.441406 C 146.414062 86.308594 174.277344 105.691406 174.277344 105.691406 C 167.089844 117.578125 148.210938 130.285156 130.207031 138.316406 C 135.605469 133.792969 139.085938 127.195312 139.671875 119.984375 C 138.074219 124.371094 135.757812 128.328125 132.820312 131.644531 C 128.398438 136.636719 122.777344 139.921875 116.5625 141.144531 C 114.785156 141.492188 112.976562 141.667969 111.167969 141.667969 C 107.261719 141.667969 103.332031 140.859375 99.578125 139.261719 C 97.886719 138.542969 96.238281 137.667969 94.652344 136.652344 C 99.570312 141.570312 106.316406 144.484375 113.488281 144.4375 C 110.867188 145.160156 108.375 145.710938 106.066406 146.070312 C 84.964844 149.34375 83.328125 158.492188 83.328125 158.492188 C 88.910156 150.003906 105.445312 148.761719 105.445312 148.761719 C 131.488281 145.449219 161.933594 124.25 161.933594 124.25 C 172.957031 118.175781 177.230469 127.011719 177.230469 127.011719 C 176.539062 121.488281 168.132812 120.382812 168.132812 120.382812 C 178.074219 113.699219 181.960938 123.730469 182.050781 123.96875 C 180.945312 117.347656 174.058594 115.277344 174.058594 115.277344 C 180.121094 111.273438 185.910156 120.382812 185.910156 120.382812 C 184.257812 114.308594 176.675781 111.964844 176.675781 111.964844 C 185.910156 105.613281 191.421875 116.65625 191.421875 116.65625 C 189.082031 109.476562 182.050781 107.546875 182.050781 107.546875 C 194.039062 98.847656 201.484375 107.960938 201.484375 107.960938 C 199 101.886719 187.703125 100.367188 187.703125 100.367188 " fill-opacity="1" fill-rule="nonzero"/></g><path fill="#100f0d" d="M 72.054688 19.472656 C 72.09375 19.453125 72.132812 19.4375 72.171875 19.417969 C 72.136719 19.433594 72.097656 19.453125 72.054688 19.472656 " fill-opacity="1" fill-rule="nonzero"/><path fill="#100f0d" d="M 72.171875 19.417969 C 72.203125 19.40625 72.230469 19.390625 72.261719 19.375 C 72.238281 19.386719 72.207031 19.402344 72.171875 19.417969 " fill-opacity="1" fill-rule="nonzero"/><path fill="#100f0d" d="M 72.261719 19.375 C 72.289062 19.363281 72.308594 19.355469 72.324219 19.347656 C 72.304688 19.359375 72.28125 19.367188 72.261719 19.375 " fill-opacity="1" fill-rule="nonzero"/><g clip-path="url(#7bd41cc385)"><path fill="#100f0d" d="M 187.304688 17.539062 C 196.785156 16.847656 213.476562 23.789062 213.726562 23.890625 C 210.867188 21.503906 207.203125 19.320312 203.074219 17.363281 C 203.058594 17.355469 203.042969 17.347656 203.027344 17.339844 C 203.042969 17.34375 203.058594 17.34375 203.074219 17.347656 C 193.722656 12.910156 183.597656 9.957031 173.539062 7.617188 C 156.171875 3.578125 139.671875 1.484375 122.019531 4.976562 C 109.714844 7.410156 97.648438 11.230469 86.378906 16.773438 C 74.660156 22.539062 65.964844 30.859375 55.703125 38.433594 C 58.890625 30.980469 64.488281 23.058594 71.984375 19.503906 C 69.121094 20.847656 50.730469 29.804688 49.207031 39.351562 C 49.207031 39.351562 47.269531 32.035156 58.710938 22.09375 C 58.511719 22.207031 45.839844 29.496094 38.183594 51.109375 C 38.183594 51.109375 35.238281 41.347656 42.539062 35.722656 C 42.128906 36.019531 35.496094 40.933594 32.894531 48.957031 C 32.894531 48.957031 32.070312 40.882812 35.996094 37.984375 C 35.996094 37.984375 31.035156 40.632812 29.382812 51.109375 C 29.382812 51.109375 27.9375 45.246094 29.375 42.34375 C 29.117188 42.808594 20.90625 57.804688 20.90625 67.386719 C 20.90625 67.386719 19.667969 52.6875 25.867188 45.4375 C 25.726562 45.546875 16.773438 52.410156 16.773438 70.078125 C 16.773438 70.078125 13.671875 59.519531 18.21875 52.066406 C 18.21875 52.066406 11.605469 59.648438 13.878906 72.835938 C 13.878906 72.835938 16.523438 87.039062 17.976562 89.488281 C 17.316406 88.4375 7.5625 72.589844 10.15625 55.585938 C 10.15625 55.585938 5.613281 68.628906 15.117188 87.679688 C 14.980469 87.550781 5.214844 78.425781 7.265625 58.691406 C 7.265625 58.691406 4.425781 70.699219 6.980469 77.945312 C 6.980469 77.945312 1.269531 72.976562 0.238281 65.316406 C 0.238281 65.316406 -0.382812 75.460938 10.363281 88.503906 C 10.226562 88.386719 5.519531 84.375 0.230469 84.988281 C 2.898438 85.582031 6.007812 86.679688 8.09375 88.492188 C 11.339844 91.316406 12.324219 95.605469 15.992188 98.210938 C 16.585938 98.636719 17.261719 99.035156 17.988281 99 C 18.222656 98.988281 18.441406 98.9375 18.648438 98.855469 C 19.304688 98.589844 19.855469 98.023438 20.347656 97.484375 C 37.398438 78.808594 56.171875 61.714844 76.355469 46.488281 C 91.414062 35.125 107.878906 24.261719 126.421875 19.851562 C 158.835938 12.148438 194.988281 26.292969 225.519531 36.1875 C 213 29.472656 201.375 20.574219 187.304688 17.539062 " fill-opacity="1" fill-rule="nonzero"/></g><path fill="#ffffff" d="M 118.695312 120.90625 C 119.460938 123.332031 117.738281 126.035156 114.855469 126.945312 C 111.96875 127.855469 109.011719 126.628906 108.25 124.203125 C 107.484375 121.777344 109.207031 119.074219 112.089844 118.164062 C 114.976562 117.253906 117.933594 118.480469 118.695312 120.90625 " fill-opacity="1" fill-rule="nonzero"/><path fill="#ffffff" d="M 107 99.867188 C 107 99.867188 107.074219 99.78125 107.210938 99.613281 C 107.28125 99.527344 107.363281 99.425781 107.472656 99.308594 C 107.582031 99.195312 107.703125 99.054688 107.851562 98.917969 C 108 98.777344 108.160156 98.617188 108.351562 98.460938 C 108.445312 98.378906 108.542969 98.292969 108.644531 98.210938 C 108.753906 98.128906 108.863281 98.046875 108.976562 97.960938 C 109.441406 97.621094 109.988281 97.269531 110.628906 96.953125 C 111.265625 96.640625 111.992188 96.359375 112.785156 96.148438 C 113.582031 95.9375 114.445312 95.796875 115.34375 95.757812 L 115.515625 95.75 L 115.558594 95.746094 L 115.691406 95.746094 C 115.800781 95.746094 115.910156 95.746094 116.019531 95.746094 L 116.183594 95.746094 L 116.359375 95.753906 C 116.480469 95.761719 116.597656 95.765625 116.71875 95.773438 C 116.953125 95.785156 117.183594 95.816406 117.417969 95.835938 C 117.652344 95.871094 117.886719 95.902344 118.121094 95.945312 C 119.054688 96.121094 119.988281 96.410156 120.875 96.800781 C 121.757812 97.203125 122.59375 97.707031 123.347656 98.296875 C 123.53125 98.449219 123.71875 98.597656 123.894531 98.757812 C 124.066406 98.917969 124.242188 99.074219 124.402344 99.246094 C 124.484375 99.328125 124.566406 99.414062 124.648438 99.496094 C 124.722656 99.582031 124.800781 99.671875 124.878906 99.757812 C 125.035156 99.925781 125.171875 100.113281 125.3125 100.289062 C 125.871094 101.007812 126.304688 101.777344 126.636719 102.535156 C 126.964844 103.296875 127.179688 104.054688 127.308594 104.757812 C 127.433594 105.464844 127.46875 106.121094 127.457031 106.695312 C 127.441406 106.984375 127.433594 107.253906 127.402344 107.5 C 127.375 107.746094 127.339844 107.96875 127.300781 108.171875 C 127.230469 108.574219 127.140625 108.882812 127.082031 109.089844 C 127.015625 109.296875 126.976562 109.40625 126.976562 109.40625 C 126.976562 109.40625 126.984375 109.292969 127 109.074219 C 127.019531 108.859375 127.027344 108.542969 127.027344 108.148438 C 127.027344 107.949219 127.019531 107.726562 127.003906 107.488281 C 126.988281 107.25 126.953125 106.996094 126.925781 106.722656 C 126.847656 106.183594 126.726562 105.578125 126.53125 104.945312 C 126.335938 104.3125 126.0625 103.648438 125.703125 102.988281 C 125.34375 102.332031 124.898438 101.671875 124.367188 101.058594 C 124.226562 100.910156 124.097656 100.753906 123.949219 100.609375 C 123.878906 100.535156 123.804688 100.460938 123.734375 100.386719 C 123.65625 100.316406 123.582031 100.242188 123.503906 100.171875 C 123.203125 99.886719 122.871094 99.621094 122.535156 99.359375 C 121.847656 98.859375 121.101562 98.414062 120.3125 98.058594 C 119.523438 97.707031 118.695312 97.441406 117.859375 97.257812 C 117.652344 97.214844 117.441406 97.179688 117.234375 97.140625 C 117.023438 97.113281 116.8125 97.078125 116.609375 97.054688 C 116.507812 97.046875 116.40625 97.035156 116.304688 97.027344 L 116.152344 97.011719 L 115.988281 97.003906 C 115.882812 96.996094 115.773438 96.992188 115.664062 96.988281 L 115.582031 96.984375 L 115.5625 96.980469 L 115.554688 96.980469 C 115.535156 96.980469 115.5625 96.980469 115.558594 96.980469 L 115.367188 96.980469 C 114.546875 96.96875 113.753906 97.03125 113.007812 97.160156 C 112.261719 97.285156 111.566406 97.46875 110.9375 97.6875 C 110.304688 97.90625 109.746094 98.160156 109.257812 98.410156 C 109.136719 98.472656 109.019531 98.535156 108.902344 98.59375 C 108.792969 98.660156 108.683594 98.722656 108.582031 98.78125 C 108.371094 98.898438 108.191406 99.023438 108.023438 99.128906 C 107.695312 99.355469 107.433594 99.53125 107.265625 99.667969 C 107.09375 99.800781 107 99.867188 107 99.867188 " fill-opacity="1" fill-rule="nonzero"/><g clip-path="url(#ae45903304)"><g clip-path="url(#ca17206f6a)"><g clip-path="url(#379224df3f)"><path fill="#100f0d" d="M 43.125 72.328125 C 41.878906 72.695312 39.6875 72.484375 43.023438 64.070312 C 46.363281 55.65625 51.832031 49.027344 60.046875 41.917969 C 68.261719 34.8125 78.324219 29.121094 89.605469 23.378906 C 100.886719 17.636719 106.859375 15.90625 106.859375 15.90625 C 106.859375 15.90625 91.941406 22.378906 76.617188 31.933594 C 61.648438 41.265625 56.460938 48.417969 53.5 52 C 50.847656 55.207031 47.558594 60.988281 46.195312 65.890625 C 44.828125 70.792969 44.296875 71.984375 43.125 72.328125 Z M 43.125 72.328125 " fill-opacity="1" fill-rule="nonzero"/></g></g></g></svg>